<?xml version="1.0" standalone="no"?>
<!DOCTYPE svg PUBLIC "-//W3C//DTD SVG 20010904//EN"
 "http://www.w3.org/TR/2001/REC-SVG-20010904/DTD/svg10.dtd">
<svg version="1.0" xmlns="http://www.w3.org/2000/svg"
 width="850.000000pt" height="850.000000pt" viewBox="0 0 850.000000 850.000000"
 preserveAspectRatio="xMidYMid meet">
<metadata>
Created by potrace 1.14, written by Peter Selinger 2001-2017
</metadata>
<g transform="translate(0.000000,850.000000) scale(0.100000,-0.100000)"
fill="#000000" stroke="none">
<path d="M4332 6905 c-71 -39 -110 -113 -97 -183 8 -42 44 -93 80 -112 25 -13
25 -15 25 -139 0 -112 -5 -208 -25 -506 -7 -108 -23 -233 -34 -272 -5 -17 -7
-33 -5 -35 4 -5 -34 -206 -42 -219 -3 -5 -7 -22 -10 -37 -25 -151 -122 -240
-247 -225 -104 11 -166 92 -283 363 -52 121 -64 158 -55 170 6 8 19 31 27 50
14 31 15 40 3 75 -41 119 -200 109 -228 -14 -13 -57 15 -105 75 -131 25 -10
30 -47 40 -266 9 -174 -7 -318 -41 -390 -57 -117 -185 -165 -302 -112 -75 34
-203 189 -384 468 -127 194 -158 244 -179 283 l-21 37 21 22 c27 29 27 100 0
138 -37 51 -122 62 -168 22 -10 -9 -26 -29 -36 -44 -36 -56 15 -150 89 -164
19 -3 35 -11 35 -18 0 -6 7 -24 15 -40 9 -16 38 -82 66 -145 87 -199 210 -476
239 -536 10 -22 48 -107 83 -190 36 -82 76 -175 90 -205 30 -66 70 -154 122
-272 44 -98 38 -95 142 -74 127 27 417 65 608 81 177 14 651 21 755 10 25 -2
88 -7 140 -10 99 -6 125 -8 275 -26 123 -14 218 -30 387 -63 l68 -13 36 76
c20 42 70 153 111 246 41 94 81 184 88 200 38 86 111 249 142 320 61 136 79
177 113 255 17 41 40 93 50 115 62 135 89 195 105 238 13 33 23 47 37 47 60 0
125 76 114 133 -16 87 -114 134 -184 90 -58 -38 -73 -94 -42 -159 11 -22 20
-43 20 -46 0 -4 -22 -39 -50 -80 -27 -40 -50 -78 -50 -84 0 -6 -7 -17 -16 -25
-8 -7 -24 -29 -35 -48 -21 -38 -95 -156 -122 -194 -61 -83 -121 -162 -133
-174 -8 -8 -14 -18 -14 -22 0 -15 -116 -128 -147 -144 -44 -23 -122 -31 -171
-18 -27 8 -60 29 -91 59 -45 43 -51 54 -67 127 -20 89 -25 343 -10 497 8 87 8
88 42 104 85 41 84 174 -1 210 -57 23 -92 18 -133 -21 -33 -30 -37 -40 -37
-82 0 -33 7 -57 22 -79 l22 -30 -35 -80 c-20 -43 -39 -90 -44 -104 -16 -50
-75 -166 -107 -210 -52 -71 -85 -100 -133 -114 -118 -35 -220 24 -257 148 -12
37 -20 70 -53 211 -13 53 -47 309 -55 410 -4 44 -9 91 -11 105 -2 14 -7 140
-10 281 l-7 255 37 22 c48 28 81 98 73 154 -14 102 -143 178 -225 133z"/>
<path d="M3960 4115 c-96 -8 -213 -19 -260 -25 -91 -11 -393 -61 -398 -65 -1
-1 14 -41 35 -89 36 -87 37 -88 67 -81 65 13 408 54 551 66 148 11 539 17 705
10 107 -4 466 -38 544 -51 33 -5 62 -8 64 -5 3 2 12 1 21 -4 9 -5 41 -12 71
-15 l56 -7 33 78 c18 43 33 83 33 88 1 11 -84 33 -152 38 -25 3 -52 7 -60 10
-28 10 -263 38 -430 51 -218 17 -661 17 -880 1z"/>
<path d="M1792 3971 c-27 -5 -41 -17 -73 -66 -45 -68 -47 -84 -18 -111 26 -24
54 -76 67 -129 14 -52 24 -1063 11 -1108 -8 -31 -20 -45 -88 -108 l-21 -19 45
-89 c25 -49 52 -94 59 -100 9 -7 152 -11 447 -11 473 -1 489 0 607 58 84 40
190 150 224 233 50 122 47 247 -10 369 -34 73 -148 186 -227 224 l-59 29 49
25 c27 13 75 51 107 83 127 126 159 296 86 448 -33 67 -140 170 -219 208 -112
55 -152 60 -515 63 -181 1 -354 3 -384 4 -30 1 -70 0 -88 -3z m747 -234 c65
-33 94 -91 88 -177 -9 -130 -91 -250 -211 -308 -71 -35 -117 -40 -136 -17 -9
11 -12 63 -11 186 2 149 5 179 22 219 47 109 147 148 248 97z m-169 -674 c112
-41 198 -120 253 -233 28 -57 32 -73 30 -142 -2 -85 -13 -114 -67 -170 -47
-50 -88 -69 -157 -75 -66 -6 -102 12 -138 71 -20 31 -21 48 -21 280 0 304 1
306 100 269z"/>
<path d="M5734 3966 c-7 -7 -15 -27 -19 -45 -4 -18 -13 -44 -21 -59 -8 -15
-14 -33 -14 -40 0 -7 -6 -21 -12 -33 -11 -17 -10 -22 7 -35 47 -33 95 -89 107
-123 9 -26 12 -166 12 -521 l0 -485 -23 -49 c-13 -27 -43 -68 -67 -91 l-43
-42 35 -94 c19 -52 38 -97 43 -102 7 -7 178 -9 582 -7 24 0 29 7 53 83 14 45
26 85 26 90 0 4 -18 24 -41 44 -22 20 -47 49 -55 64 -21 42 -18 164 6 217 17
37 23 42 53 42 39 0 73 -31 107 -99 56 -111 56 -178 0 -224 -16 -14 -30 -31
-32 -38 -4 -20 21 -130 37 -159 l14 -25 208 -5 c114 -3 239 -3 277 0 l69 5 23
80 c13 44 24 86 24 94 0 8 -18 30 -41 49 -44 37 -62 72 -133 252 -26 63 -51
123 -56 132 -6 10 -10 35 -10 55 1 34 11 50 91 138 126 139 179 251 179 379 0
254 -178 455 -476 538 -75 21 -102 22 -489 25 -328 2 -412 0 -421 -11z m811
-210 c54 -23 104 -66 125 -106 91 -178 50 -442 -93 -597 -91 -98 -189 -118
-253 -52 l-29 30 -3 252 c-3 276 5 361 43 418 41 64 132 87 210 55z"/>
<path d="M3455 3546 c-174 -58 -266 -160 -286 -317 -8 -64 -7 -78 12 -115 24
-50 87 -111 126 -120 23 -6 32 -1 62 37 20 24 64 75 97 115 60 69 62 72 57
116 -10 86 54 158 139 158 43 0 89 -45 116 -115 26 -67 36 -289 12 -279 -63
25 -233 25 -295 -1 -122 -49 -198 -108 -258 -198 -60 -91 -71 -129 -72 -247 0
-114 12 -159 63 -225 97 -129 320 -161 522 -76 l71 29 37 -39 37 -39 193 -1
c106 -1 194 0 195 2 2 2 18 35 35 72 l32 68 -25 44 -26 44 -6 453 c-5 339 -9
461 -19 484 -16 38 -65 89 -106 110 -68 35 -634 67 -713 40z m339 -712 c13 -5
14 -26 10 -142 -2 -75 -6 -144 -9 -152 -14 -43 -123 -64 -174 -34 -74 44 -66
187 15 268 48 47 119 75 158 60z"/>
<path d="M4745 3554 c-143 -33 -275 -145 -304 -259 -16 -63 -15 -156 3 -190
22 -43 63 -83 107 -105 22 -12 42 -20 44 -18 1 2 45 54 97 115 l95 113 -1 58
c-1 50 4 65 28 96 52 69 125 77 180 20 47 -49 65 -108 71 -242 l5 -114 -27 6
c-55 12 -196 16 -240 6 -83 -19 -167 -66 -234 -132 -98 -96 -149 -212 -149
-338 0 -66 36 -173 75 -224 93 -123 331 -152 523 -66 l63 29 42 -42 42 -42
170 2 c94 1 180 2 191 2 17 1 29 17 53 73 l32 71 -25 46 -25 46 -3 450 c-3
439 -4 451 -25 490 -34 64 -93 110 -153 119 -19 2 -71 8 -115 11 -44 4 -118
10 -165 14 -95 9 -324 12 -355 5z m323 -851 c2 -160 -1 -171 -52 -194 -110
-50 -199 15 -183 133 7 50 49 121 91 153 36 27 114 47 132 33 6 -4 11 -54 12
-125z"/>
</g>
</svg>
